<svg xmlns="http://www.w3.org/2000/svg" id="Layer_1" data-name="Layer 1" viewBox="0 0 34 34">
    <defs>
        <style>
            .svg-icon-journey-action-send-text-1{fill:#f1faed;}.svg-icon-journey-action-send-text-1,.svg-icon-journey-action-send-text-2,.svg-icon-journey-action-send-text-3{stroke:#7ace4c;}.svg-icon-journey-action-send-text-2,.svg-icon-journey-action-send-text-3{fill:none;}.svg-icon-journey-action-send-text-3{stroke-linecap:round;}
        </style>
    </defs>
    <g id="Page-1">
        <g id="Automation">
            <g id="Group-14">
                <circle id="Oval-2" cx="17" cy="17" r="16.5" class="svg-icon-journey-action-send-text-1"/>
            </g>
        </g>
    </g>
    <rect width="10.99" height="19.4" x="11.59" y="7.13" class="svg-icon-journey-action-send-text-2" rx="1.42" ry="1.42"/>
    <line x1="11.59" x2="22.58" y1="9.92" y2="9.92" class="svg-icon-journey-action-send-text-2"/>
    <line x1="11.59" x2="22.58" y1="21.62" y2="21.62" class="svg-icon-journey-action-send-text-2"/>
    <circle cx="17.08" cy="24.16" r="1.03" class="svg-icon-journey-action-send-text-2"/>
    <line x1="16.19" x2="17.81" y1="8.43" y2="8.43" class="svg-icon-journey-action-send-text-3"/>
    <path d="M21.72,11.43c-2.23,0-3.91,1.36-3.91,3.17a2.81,2.81,0,0,0,1.64,2.65.12.12,0,0,1,.07.11V19l1.86-1.23a.11.11,0,0,1,.08,0h.26c2.23,0,3.91-1.36,3.91-3.16S24,11.43,21.72,11.43Z" class="svg-icon-journey-action-send-text-1"/>
</svg>
