<?xml version="1.0" encoding="UTF-8"?>
<svg width="34px" height="31px" viewBox="0 0 34 31" version="1.1" xmlns="http://www.w3.org/2000/svg" xmlns:xlink="http://www.w3.org/1999/xlink">
    <!-- Generator: Sketch 48.2 (47327) - http://www.bohemiancoding.com/sketch -->
    <title>boon icon</title>
    <desc>Created with Sketch.</desc>
    <defs></defs>
    <g id="Contact-Show-(activity)" stroke="none" stroke-width="1" fill="none" fill-rule="evenodd" transform="translate(-21.000000, -22.000000)">
        <g id="Nav-Bar" transform="translate(21.000000, 22.000000)" fill="#835CDD">
            <path d="M9.41260019,21.5465355 C9.33611841,21.46851 9.2675828,21.3844826 9.18712795,21.3104584 C7.28203653,19.5238752 5.15445269,19.2137739 5.15445269,19.2137739 C6.04044933,18.0964092 7.22045381,17.73129 7.22045381,17.73129 C7.22045381,17.7302896 7.21946054,17.7292893 7.21946054,17.728289 C6.46060244,14.8753576 7.19363553,11.7023218 9.41756653,9.46159029 C12.733101,6.12350056 18.1056972,6.12049958 21.4172586,9.45658866 C24.72882,12.7926777 24.7228604,18.2134474 21.411299,21.5405335 C18.0927847,24.8756223 12.7241616,24.8816242 9.41260019,21.5465355 M26.2673949,4.54498525 C20.2531464,-1.51099175 10.5081767,-1.51599338 4.49988792,4.53598231 C-1.50740763,10.5869577 -1.4954884,20.4211681 4.50882734,26.4571385 C10.5300287,32.5071136 20.2690387,32.5181172 26.2773276,26.4671418 C26.4153921,26.3270961 26.540544,26.1730458 26.6835749,26.0400024 C30.1401537,22.797944 34,22.2357605 34,22.2357605 C32.3918962,20.2090989 30.2523932,19.5458823 30.2523932,19.5458823 C30.2523932,19.544882 30.2533864,19.5428814 30.2533864,19.5408807 C31.6310516,14.3651911 30.3020567,8.60931206 26.2673949,4.54498525" id="boon-icon"></path>
        </g>
    </g>
</svg>