<?xml version="1.0" encoding="utf-8"?>
<!--Generator: Adobe Illustrator 22.0.1, SVG Export Plug-In . SVG Version: 6.00 Build 0)-->
<svg xmlns="http://www.w3.org/2000/svg" xmlns:xlink="http://www.w3.org/1999/xlink" id="Layer_1" x="0px" y="0px" style="enable-background:new 0 0 12 14;" version="1.1" viewBox="0 0 12 14" xml:space="preserve">
    <style type="text/css">
        .svg-icon-journey-trash{fill:#FF0A53;}
    </style>
    <g>
        <path d="M11.4,2.6H9V2.3c0-0.8-0.6-1.4-1.4-1.4H5.2c-0.8,0-1.4,0.6-1.4,1.4v0.3H1.4c-0.2,0-0.4,0.2-0.4,0.4
		s0.2,0.4,0.4,0.4h0.5v7.8c0,1,0.8,1.9,1.9,1.9H9c1,0,1.9-0.8,1.9-1.9V3.5h0.5c0.2,0,0.4-0.2,0.4-0.4S11.7,2.6,11.4,2.6z M4.6,2.3
		c0-0.3,0.3-0.6,0.6-0.6h2.4c0.3,0,0.6,0.3,0.6,0.6v0.3H4.6V2.3z M9,12.3H3.8c-0.6,0-1-0.5-1-1V3.5h7.3l0,7.8
		C10.1,11.9,9.6,12.3,9,12.3z" class=".svg-icon-journey-trash"/>
        <path d="M6.4,4.5C6.2,4.5,6,4.7,6,4.9v5.9c0,0.2,0.2,0.4,0.4,0.4c0.2,0,0.4-0.2,0.4-0.4V4.9C6.8,4.7,6.6,4.5,6.4,4.5z" class=".svg-icon-journey-trash"/>
        <path d="M4.2,4.9C4,4.9,3.8,5.1,3.8,5.3v5.2c0,0.2,0.2,0.4,0.4,0.4c0.2,0,0.4-0.2,0.4-0.4V5.3C4.6,5.1,4.4,4.9,4.2,4.9
		z" class=".svg-icon-journey-trash"/>
        <path d="M8.6,4.9c-0.2,0-0.4,0.2-0.4,0.4v5.2c0,0.2,0.2,0.4,0.4,0.4S9,10.7,9,10.5V5.3C9,5.1,8.8,4.9,8.6,4.9z" class=".svg-icon-journey-trash"/>
    </g>
</svg>
