<?xml version="1.0" encoding="UTF-8"?>
<svg width="21px" height="21px" viewBox="0 0 21 21" version="1.1" xmlns="http://www.w3.org/2000/svg" xmlns:xlink="http://www.w3.org/1999/xlink">
    <defs>
        <polygon id="path-1" points="0.0007 -0.0001 20.7057 -0.0001 20.7057 20.7057 0.0007 20.7057"></polygon>
    </defs>
    <g id="Page-1" stroke="none" stroke-width="1" fill="none" fill-rule="evenodd">
        <g id="Menu---Texting" transform="translate(-994.000000, -29.000000)">
            <g id="Nav-Bar" transform="translate(21.000000, 22.000000)">
                <g id="Nav-Icons" transform="translate(84.000000, 4.000000)">
                    <g id="Page-1" transform="translate(889.000000, 3.000000)">
                        <mask id="mask-2" fill="white">
                            <use xlink:href="#path-1"></use>
                        </mask>
                        <g id="Clip-2"></g>
                        <path d="M18.4467,3.7649 C17.6167,3.7649 16.9407,3.0889 16.9407,2.2589 C16.9407,1.4289 17.6167,0.7529 18.4467,0.7529 C19.2777,0.7529 19.9527,1.4289 19.9527,2.2589 C19.9527,3.0889 19.2777,3.7649 18.4467,3.7649 M17.6937,15.4349 C17.6937,15.8499 17.3557,16.1879 16.9407,16.1879 C16.5257,16.1879 16.1877,15.8499 16.1877,15.4349 C16.1877,15.0199 16.5257,14.6819 16.9407,14.6819 C17.3557,14.6819 17.6937,15.0199 17.6937,15.4349 M10.9177,11.6709 C9.6727,11.6709 8.6587,10.6579 8.6587,9.4119 C8.6587,8.1659 9.6727,7.1529 10.9177,7.1529 C12.1637,7.1529 13.1757,8.1659 13.1757,9.4119 C13.1757,10.6579 12.1637,11.6709 10.9177,11.6709 M12.4237,18.4469 C12.4237,19.2779 11.7487,19.9529 10.9177,19.9529 C10.0877,19.9529 9.4117,19.2779 9.4117,18.4469 C9.4117,17.6169 10.0877,16.9409 10.9177,16.9409 C11.7487,16.9409 12.4237,17.6169 12.4237,18.4469 M2.2597,19.1999 C1.4277,19.1999 0.7537,18.5249 0.7537,17.6939 C0.7537,16.8639 1.4277,16.1879 2.2597,16.1879 C3.0897,16.1879 3.7647,16.8639 3.7647,17.6939 C3.7647,18.5249 3.0897,19.1999 2.2597,19.1999 M4.1407,3.3889 C4.1407,2.9729 4.4787,2.6359 4.8937,2.6359 C5.3087,2.6359 5.6467,2.9729 5.6467,3.3889 C5.6467,3.8039 5.3087,4.1409 4.8937,4.1409 C4.4787,4.1409 4.1407,3.8039 4.1407,3.3889 M18.4467,-0.0001 C17.2017,-0.0001 16.1877,1.0129 16.1877,2.2589 C16.1877,2.6489 16.2877,3.0149 16.4617,3.3359 L12.7607,7.0359 C12.2517,6.6389 11.6127,6.3999 10.9177,6.3999 C10.2227,6.3999 9.5847,6.6389 9.0737,7.0359 L6.1867,4.1479 C6.3187,3.9239 6.3997,3.6669 6.3997,3.3889 C6.3997,2.5579 5.7247,1.8829 4.8937,1.8829 C4.0637,1.8829 3.3877,2.5579 3.3877,3.3889 C3.3877,4.2189 4.0637,4.8939 4.8937,4.8939 C5.1727,4.8939 5.4297,4.8129 5.6537,4.6809 L8.5417,7.5679 C8.1447,8.0779 7.9057,8.7169 7.9057,9.4119 C7.9057,10.1069 8.1447,10.7449 8.5417,11.2549 L3.7737,16.0229 C3.3727,15.6589 2.8427,15.4349 2.2597,15.4349 C1.0127,15.4349 0.0007,16.4479 0.0007,17.6939 C0.0007,18.9399 1.0127,19.9529 2.2597,19.9529 C3.5047,19.9529 4.5177,18.9399 4.5177,17.6939 C4.5177,17.3049 4.4187,16.9379 4.2447,16.6179 L9.0737,11.7869 C9.4907,12.1109 9.9927,12.3279 10.5417,12.3969 L10.5417,16.2219 C9.4747,16.4019 8.6597,17.3289 8.6597,18.4469 C8.6597,19.6929 9.6727,20.7059 10.9187,20.7059 C12.1637,20.7059 13.1767,19.6929 13.1767,18.4469 C13.1767,17.3299 12.3607,16.4019 11.2947,16.2219 L11.2947,12.3969 C11.8427,12.3279 12.3447,12.1109 12.7617,11.7869 L15.6487,14.6749 C15.5157,14.8989 15.4347,15.1569 15.4347,15.4349 C15.4347,16.2659 16.1107,16.9409 16.9407,16.9409 C17.7717,16.9409 18.4467,16.2659 18.4467,15.4349 C18.4467,14.6049 17.7717,13.9299 16.9407,13.9299 C16.6627,13.9299 16.4047,14.0099 16.1807,14.1429 L13.2937,11.2559 C13.6907,10.7449 13.9287,10.1069 13.9287,9.4119 C13.9287,8.7169 13.6907,8.0779 13.2937,7.5679 L16.9317,3.9299 C17.3337,4.2939 17.8637,4.5179 18.4467,4.5179 C19.6927,4.5179 20.7057,3.5049 20.7057,2.2589 C20.7057,1.0129 19.6927,-0.0001 18.4467,-0.0001" id="Fill-1" fill="#78909C" mask="url(#mask-2)"></path>
                    </g>
                </g>
            </g>
        </g>
    </g>
</svg>
