<?xml version="1.0" encoding="UTF-8"?>
<svg xmlns="http://www.w3.org/2000/svg" xmlns:xlink="http://www.w3.org/1999/xlink" version="1.1" viewBox="0 0 23 17">
    <defs>
        <polygon id="svg-icon-nav-email-path-1" points="0.000130400888 0.0004 22.6117189 0.0004 22.6117189 16.9374 0.000130400888 16.9374"/>
    </defs>
    <g id="svg-icon-nav-email-path-2" fill="none" fill-rule="evenodd" stroke="none" stroke-width="1">
        <g id="Menu---Texting" transform="translate(-1152.000000, -31.000000)">
            <g id="svg-icon-nav-email-path-2" transform="translate(1152.000000, 31.000000)">
                <mask id="svg-icon-nav-email-mask-1" fill="white">
                    <use xlink:href="#svg-icon-nav-email-path-1"/>
                </mask>
                <g id="svg-icon-nav-email-clip-1"/>
                <path id="svg-icon-nav-email-fill-1" fill="#78909C" d="M13.8793,15.8334 L9.1923,9.1374 L21.2773,1.4164 L13.8793,15.8334 Z M8.3913,14.2094 L8.9113,10.0484 L10.6263,12.4984 L8.3913,14.2094 Z M19.9133,1.3944 L8.6073,8.6184 L1.6883,6.3514 L19.9133,1.3944 Z M22.5273,0.1354 C22.4453,0.0344 22.3183,-0.0126 22.1923,0.0024 C22.1623,0.0044 22.1353,0.0094 22.1083,0.0174 L0.2773,5.9554 C0.1173,5.9984 0.0043,6.1424 0.0003,6.3084 C-0.0047,6.4744 0.1013,6.6244 0.2593,6.6754 L8.2463,9.2924 L7.5313,15.0084 C7.5133,15.1594 7.5863,15.3064 7.7183,15.3814 C7.7763,15.4154 7.8413,15.4314 7.9053,15.4314 C7.9863,15.4314 8.0673,15.4054 8.1343,15.3544 L11.0583,13.1154 L13.6203,16.7764 C13.6913,16.8774 13.8063,16.9374 13.9293,16.9374 C13.9373,16.9374 13.9453,16.9374 13.9543,16.9364 C14.0863,16.9274 14.2033,16.8504 14.2633,16.7324 L22.5693,0.5444 C22.6383,0.4124 22.6223,0.2514 22.5273,0.1354 Z" mask="url(#svg-icon-nav-email-mask-1)"/>
            </g>
        </g>
    </g>
</svg>
