<?xml version="1.0" encoding="UTF-8"?>
<svg xmlns="http://www.w3.org/2000/svg" xmlns:xlink="http://www.w3.org/1999/xlink" version="1.1" viewBox="0 0 20 23">
    <defs>
        <polygon id="svg-icon-nav-text-path-1" points="0.0006 0.4122 19.576 0.4122 19.576 23 0.0006 23"/>
    </defs>
    <g id="svg-icon-nav-text-page-1" fill="none" fill-rule="evenodd" stroke="none" stroke-width="1">
        <g id="svg-icon-nav-text-menu" transform="translate(-1073.000000, -28.000000)">
            <g id="svg-icon-nav-text-page-1" transform="translate(1073.000000, 27.000000)">
                <g id="svg-icon-nav-text-group-1" transform="translate(0.000000, 0.588000)">
                    <mask id="svg-icon-nav-text-mask-1" fill="white">
                        <use xlink:href="#svg-icon-nav-text-path-1"/>
                    </mask>
                    <g id="Clip-8"/>
                    <path id="svg-icon-nav-text-fill-4" fill="#78909C" d="M18.8236,12.0822 L12.8006,12.0822 L10.0396,12.0822 L7.5296,13.9642 L7.5296,12.0822 L6.0236,12.0822 L6.0236,5.6822 L12.8006,5.6822 L18.8236,5.6822 L18.8236,12.0822 Z M12.0476,17.7292 L0.7536,17.7292 L0.7536,3.4232 L12.0476,3.4232 L12.0476,4.9292 L5.2706,4.9292 L5.2706,12.8352 L6.7766,12.8352 L6.7766,15.4702 L10.2906,12.8352 L12.0476,12.8352 L12.0476,17.7292 Z M1.6586,22.2472 C1.1596,22.2472 0.7536,21.8412 0.7536,21.3412 L0.7536,18.4822 L12.0476,18.4822 L12.0476,21.3412 C12.0476,21.8412 11.6406,22.2472 11.1416,22.2472 L1.6586,22.2472 Z M11.1406,1.1652 C11.6406,1.1652 12.0476,1.5712 12.0476,2.0702 L12.0476,2.6702 L0.7536,2.6702 L0.7536,2.0702 C0.7536,1.5712 1.1596,1.1652 1.6586,1.1652 L11.1406,1.1652 Z M19.5766,4.9292 L12.8006,4.9292 L12.8006,2.0702 C12.8006,1.1562 12.0556,0.4122 11.1416,0.4122 L1.6586,0.4122 C0.7436,0.4122 0.0006,1.1562 0.0006,2.0702 L0.0006,21.3412 C0.0006,22.2552 0.7436,23.0002 1.6586,23.0002 L11.1406,23.0002 C12.0556,23.0002 12.8006,22.2552 12.8006,21.3412 L12.8006,12.8352 L19.5766,12.8352 L19.5766,4.9292 Z" mask="url(#svg-icon-nav-text-mask-1)"/>
                    <path id="svg-icon-nav-text-fill-1" fill="#78909C" d="M6.0238,21.1179 C5.6078,21.1179 5.2708,20.7799 5.2708,20.3649 C5.2708,19.9499 5.6078,19.6119 6.0238,19.6119 C6.4388,19.6119 6.7768,19.9499 6.7768,20.3649 C6.7768,20.7799 6.4388,21.1179 6.0238,21.1179 M6.0238,18.8589 C5.1928,18.8589 4.5178,19.5349 4.5178,20.3649 C4.5178,21.1949 5.1928,21.8709 6.0238,21.8709 C6.8538,21.8709 7.5298,21.1949 7.5298,20.3649 C7.5298,19.5349 6.8538,18.8589 6.0238,18.8589" mask="url(#svg-icon-nav-text-mask-1)"/>
                    <path id="svg-icon-nav-text-fill-2" fill="#78909C" d="M4.8939,2.2942 L6.3999,2.2942 C6.6079,2.2942 6.7769,2.1262 6.7769,1.9182 C6.7769,1.7102 6.6079,1.5412 6.3999,1.5412 L4.8939,1.5412 C4.6859,1.5412 4.5179,1.7102 4.5179,1.9182 C4.5179,2.1262 4.6859,2.2942 4.8939,2.2942" mask="url(#svg-icon-nav-text-mask-1)"/>
                    <path id="svg-icon-nav-text-fill-3" fill="#78909C" d="M7.5297,2.2942 L7.9057,2.2942 C8.1137,2.2942 8.2827,2.1262 8.2827,1.9182 C8.2827,1.7102 8.1137,1.5412 7.9057,1.5412 L7.5297,1.5412 C7.3217,1.5412 7.1527,1.7102 7.1527,1.9182 C7.1527,2.1262 7.3217,2.2942 7.5297,2.2942" mask="url(#svg-icon-nav-text-mask-1)"/>
                    <path id="svg-icon-nav-text-fill-5" fill="#78909C" d="M7.9056,8.3176 L11.6706,8.3176 C11.8786,8.3176 12.0476,8.1496 12.0476,7.9416 C12.0476,7.7336 11.8786,7.5646 11.6706,7.5646 L7.9056,7.5646 C7.6976,7.5646 7.5296,7.7336 7.5296,7.9416 C7.5296,8.1496 7.6976,8.3176 7.9056,8.3176" mask="url(#svg-icon-nav-text-mask-1)"/>
                    <path id="svg-icon-nav-text-fill-6" fill="#78909C" d="M7.5297,9.8235 C7.5297,10.0315 7.6977,10.1995 7.9057,10.1995 L16.9407,10.1995 C17.1487,10.1995 17.3177,10.0315 17.3177,9.8235 C17.3177,9.6155 17.1487,9.4475 16.9407,9.4475 L7.9057,9.4475 C7.6977,9.4475 7.5297,9.6155 7.5297,9.8235" mask="url(#svg-icon-nav-text-mask-1)"/>
                </g>
            </g>
        </g>
    </g>
</svg>
